<svg width="152" height="19" viewBox="0 0 152 19" fill="none" xmlns="http://www.w3.org/2000/svg">
<path d="M13.328 6.576C13.328 7.552 13.104 8.448 12.656 9.264C12.208 10.064 11.52 10.712 10.592 11.208C9.664 11.704 8.512 11.952 7.136 11.952H4.592V18H0.488V1.152H7.136C8.48 1.152 9.616 1.384 10.544 1.848C11.472 2.312 12.168 2.952 12.632 3.768C13.096 4.584 13.328 5.52 13.328 6.576ZM6.824 8.688C7.608 8.688 8.192 8.504 8.576 8.136C8.96 7.768 9.152 7.248 9.152 6.576C9.152 5.904 8.96 5.384 8.576 5.016C8.192 4.648 7.608 4.464 6.824 4.464H4.592V8.688H6.824ZM28.0886 11.088C28.0886 11.472 28.0646 11.872 28.0166 12.288H18.7286C18.7926 13.12 19.0566 13.76 19.5206 14.208C20.0006 14.64 20.5846 14.856 21.2726 14.856C22.2966 14.856 23.0086 14.424 23.4086 13.56H27.7766C27.5526 14.44 27.1446 15.232 26.5526 15.936C25.9766 16.64 25.2486 17.192 24.3686 17.592C23.4886 17.992 22.5046 18.192 21.4166 18.192C20.1046 18.192 18.9366 17.912 17.9126 17.352C16.8886 16.792 16.0886 15.992 15.5126 14.952C14.9366 13.912 14.6486 12.696 14.6486 11.304C14.6486 9.912 14.9286 8.696 15.4886 7.656C16.0646 6.616 16.8646 5.816 17.8886 5.256C18.9126 4.696 20.0886 4.416 21.4166 4.416C22.7126 4.416 23.8646 4.688 24.8726 5.232C25.8806 5.776 26.6646 6.552 27.2246 7.56C27.8006 8.568 28.0886 9.744 28.0886 11.088ZM23.8886 10.008C23.8886 9.304 23.6486 8.744 23.1686 8.328C22.6886 7.912 22.0886 7.704 21.3686 7.704C20.6806 7.704 20.0966 7.904 19.6166 8.304C19.1526 8.704 18.8646 9.272 18.7526 10.008H23.8886ZM37.7176 14.52V18H35.6296C34.1416 18 32.9816 17.64 32.1496 16.92C31.3176 16.184 30.9016 14.992 30.9016 13.344V8.016H29.2696V4.608H30.9016V1.344H35.0056V4.608H37.6936V8.016H35.0056V13.392C35.0056 13.792 35.1016 14.08 35.2936 14.256C35.4856 14.432 35.8056 14.52 36.2536 14.52H37.7176ZM52.6276 11.088C52.6276 11.472 52.6036 11.872 52.5556 12.288H43.2676C43.3316 13.12 43.5956 13.76 44.0596 14.208C44.5396 14.64 45.1236 14.856 45.8116 14.856C46.8356 14.856 47.5476 14.424 47.9476 13.56H52.3156C52.0916 14.44 51.6836 15.232 51.0916 15.936C50.5156 16.64 49.7876 17.192 48.9076 17.592C48.0276 17.992 47.0436 18.192 45.9556 18.192C44.6436 18.192 43.4756 17.912 42.4516 17.352C41.4276 16.792 40.6276 15.992 40.0516 14.952C39.4756 13.912 39.1876 12.696 39.1876 11.304C39.1876 9.912 39.4676 8.696 40.0276 7.656C40.6036 6.616 41.4036 5.816 42.4276 5.256C43.4516 4.696 44.6276 4.416 45.9556 4.416C47.2516 4.416 48.4036 4.688 49.4116 5.232C50.4196 5.776 51.2036 6.552 51.7636 7.56C52.3396 8.568 52.6276 9.744 52.6276 11.088ZM48.4276 10.008C48.4276 9.304 48.1876 8.744 47.7076 8.328C47.2276 7.912 46.6276 7.704 45.9076 7.704C45.2196 7.704 44.6356 7.904 44.1556 8.304C43.6916 8.704 43.4036 9.272 43.2916 10.008H48.4276ZM58.8967 6.84C59.3767 6.104 59.9767 5.528 60.6967 5.112C61.4167 4.68 62.2167 4.464 63.0967 4.464V8.808H61.9687C60.9447 8.808 60.1767 9.032 59.6647 9.48C59.1527 9.912 58.8967 10.68 58.8967 11.784V18H54.7927V4.608H58.8967V6.84Z" fill="#D3E97A"/>
<path d="M73.0263 18.168C71.4743 18.168 70.0663 17.808 68.8023 17.088C67.5383 16.352 66.5383 15.336 65.8023 14.04C65.0823 12.728 64.7223 11.248 64.7223 9.6C64.7223 7.952 65.0823 6.48 65.8023 5.184C66.5383 3.872 67.5383 2.856 68.8023 2.136C70.0663 1.4 71.4743 1.032 73.0263 1.032C74.5943 1.032 76.0103 1.4 77.2743 2.136C78.5383 2.856 79.5303 3.872 80.2503 5.184C80.9703 6.48 81.3303 7.952 81.3303 9.6C81.3303 11.248 80.9703 12.728 80.2503 14.04C79.5303 15.336 78.5383 16.352 77.2743 17.088C76.0103 17.808 74.5943 18.168 73.0263 18.168ZM73.0263 16.704C74.2743 16.704 75.3943 16.416 76.3863 15.84C77.3783 15.264 78.1623 14.44 78.7383 13.368C79.3143 12.28 79.6023 11.024 79.6023 9.6C79.6023 8.176 79.3143 6.928 78.7383 5.856C78.1623 4.784 77.3783 3.96 76.3863 3.384C75.3943 2.808 74.2743 2.52 73.0263 2.52C71.7783 2.52 70.6583 2.808 69.6663 3.384C68.6743 3.96 67.8903 4.784 67.3143 5.856C66.7383 6.928 66.4503 8.176 66.4503 9.6C66.4503 11.024 66.7383 12.28 67.3143 13.368C67.8903 14.44 68.6743 15.264 69.6663 15.84C70.6583 16.416 71.7783 16.704 73.0263 16.704ZM91.4844 18L86.0844 12.12V18H84.4044V0.24H86.0844V10.752L91.3644 4.896H93.7164L87.5004 11.424L93.7644 18H91.4844ZM107.792 10.776C107.792 11.352 107.776 11.792 107.744 12.096H96.8716C96.9196 13.088 97.1596 13.936 97.5916 14.64C98.0236 15.344 98.5916 15.88 99.2956 16.248C99.9996 16.6 100.768 16.776 101.6 16.776C102.688 16.776 103.6 16.512 104.336 15.984C105.088 15.456 105.584 14.744 105.824 13.848H107.6C107.28 15.128 106.592 16.176 105.536 16.992C104.496 17.792 103.184 18.192 101.6 18.192C100.368 18.192 99.2636 17.92 98.2876 17.376C97.3116 16.816 96.5436 16.032 95.9836 15.024C95.4396 14 95.1676 12.808 95.1676 11.448C95.1676 10.088 95.4396 8.896 95.9836 7.872C96.5276 6.848 97.2876 6.064 98.2636 5.52C99.2396 4.976 100.352 4.704 101.6 4.704C102.848 4.704 103.936 4.976 104.864 5.52C105.808 6.064 106.528 6.8 107.024 7.728C107.536 8.64 107.792 9.656 107.792 10.776ZM106.088 10.728C106.104 9.752 105.904 8.92 105.488 8.232C105.088 7.544 104.536 7.024 103.832 6.672C103.128 6.32 102.36 6.144 101.528 6.144C100.28 6.144 99.2156 6.544 98.3356 7.344C97.4556 8.144 96.9676 9.272 96.8716 10.728H106.088ZM112.545 7.224C112.913 6.408 113.473 5.776 114.225 5.328C114.993 4.88 115.929 4.656 117.033 4.656V6.408H116.577C115.361 6.408 114.385 6.736 113.649 7.392C112.913 8.048 112.545 9.144 112.545 10.68V18H110.865V4.896H112.545V7.224ZM130.913 4.896V18H129.233V15.696C128.849 16.512 128.257 17.136 127.457 17.568C126.657 18 125.761 18.216 124.769 18.216C123.201 18.216 121.921 17.736 120.929 16.776C119.937 15.8 119.441 14.392 119.441 12.552V4.896H121.097V12.36C121.097 13.784 121.449 14.872 122.153 15.624C122.873 16.376 123.849 16.752 125.081 16.752C126.345 16.752 127.353 16.352 128.105 15.552C128.857 14.752 129.233 13.576 129.233 12.024V4.896H130.913ZM136.428 0.24V18H134.748V0.24H136.428ZM151.585 4.896V18H149.905V15.696C149.521 16.512 148.929 17.136 148.129 17.568C147.329 18 146.433 18.216 145.441 18.216C143.873 18.216 142.593 17.736 141.601 16.776C140.609 15.8 140.113 14.392 140.113 12.552V4.896H141.769V12.36C141.769 13.784 142.121 14.872 142.825 15.624C143.545 16.376 144.521 16.752 145.753 16.752C147.017 16.752 148.025 16.352 148.777 15.552C149.529 14.752 149.905 13.576 149.905 12.024V4.896H151.585Z" fill="white"/>
</svg>
