<svg width="12" height="13" viewBox="0 0 12 13" fill="none" xmlns="http://www.w3.org/2000/svg">
<path d="M2.21322 10.7004L1.37097 1.25H10.629L9.7856 10.6989L5.99435 11.75L2.21322 10.7004Z" fill="#1572B6"/>
<path d="M6 10.9467L9.06375 10.0973L9.7845 2.02283H6V10.9467Z" fill="#33A9DC"/>
<path d="M6 5.44659H7.53375L7.6395 4.25971H6V3.10059H8.90625L8.8785 3.41146L8.59387 6.60571H6V5.44659Z" fill="white"/>
<path d="M6.00715 8.45681L6.0019 8.45831L4.71115 8.10956L4.62865 7.18518H3.46503L3.6274 9.00506L6.00153 9.66431L6.00715 9.66281V8.45681Z" fill="#EBEBEB"/>
<path d="M7.43512 6.55664L7.29562 8.10877L6.00299 8.45752V9.66352L8.37899 9.00502L8.39662 8.80927L8.59799 6.55664H7.43512Z" fill="white"/>
<path d="M6.00415 3.10059V4.25971H3.2044L3.18115 3.99909L3.12828 3.41146L3.10052 3.10059H6.00415ZM6.00003 5.44659V6.60571H4.7254L4.70215 6.34509L4.64965 5.75746L4.6219 5.44659H6.00003Z" fill="#EBEBEB"/>
</svg>
