<svg width="20" height="21" viewBox="0 0 20 21" fill="none" xmlns="http://www.w3.org/2000/svg">
<path d="M6.68747 16.3966C6.68747 16.4812 6.59997 16.5416 6.47497 16.5416C6.34997 16.5416 6.24997 16.5416 6.24997 16.3966C6.24997 16.2516 6.34997 16.2516 6.46247 16.2516C6.57497 16.2516 6.68747 16.312 6.68747 16.3966ZM5.43747 16.2154C5.43747 16.2999 5.43747 16.3966 5.61247 16.4208C5.65724 16.4416 5.7087 16.4443 5.75557 16.4285C5.80244 16.4126 5.84088 16.3794 5.86247 16.3362C5.86247 16.2516 5.86247 16.167 5.68747 16.1308C5.51247 16.0945 5.46247 16.1308 5.43747 16.2154ZM7.21247 16.1549C7.09997 16.1549 7.02497 16.2516 7.03747 16.3483C7.04997 16.4449 7.14997 16.4812 7.27497 16.457C7.39997 16.4329 7.46247 16.3483 7.44997 16.2637C7.43747 16.1791 7.33747 16.1429 7.21247 16.1549ZM9.87497 0.83328C8.55668 0.821286 7.24946 1.06687 6.03177 1.55529C4.81408 2.04371 3.71102 2.7649 2.78878 3.67559C1.86654 4.58627 1.14413 5.66768 0.664899 6.85491C0.185672 8.04214 -0.040494 9.31072 -2.6301e-05 10.5845C-0.0349198 12.6712 0.60526 14.7163 1.8311 16.4342C3.05694 18.1521 4.80722 19.457 6.83747 20.1666C7.34997 20.2512 7.53747 19.937 7.53747 19.6833V17.2666C7.53747 17.2666 4.71247 17.8708 4.11247 16.0583C4.11247 16.0583 3.66247 14.8499 2.99997 14.5962C2.99997 14.5962 2.07497 13.9679 3.06247 13.9799C3.38591 14.0221 3.69461 14.137 3.96379 14.3154C4.23298 14.4937 4.45515 14.7306 4.61247 15.007C4.74326 15.2549 4.92506 15.4742 5.14671 15.6517C5.36836 15.8292 5.62518 15.961 5.90142 16.039C6.17766 16.1171 6.46749 16.1398 6.75313 16.1057C7.03876 16.0716 7.31418 15.9815 7.56247 15.8408C7.60978 15.3363 7.83483 14.8628 8.19997 14.4995C5.94997 14.2458 3.67497 13.9316 3.67497 10.077C3.65108 9.64158 3.72345 9.20621 3.88726 8.79992C4.05107 8.39363 4.30256 8.02575 4.62497 7.72078C4.32078 6.83625 4.35628 5.87541 4.72497 5.01411C5.57497 4.74828 7.51247 6.08953 7.51247 6.08953C9.16769 5.63826 10.9198 5.63826 12.575 6.08953C12.575 6.08953 14.5125 4.74828 15.3625 5.01411C15.7391 5.87372 15.7747 6.83739 15.4625 7.72078C15.7963 8.02155 16.0611 8.38666 16.2398 8.79253C16.4185 9.19839 16.5071 9.63598 16.5 10.077C16.5 13.9437 14.125 14.2458 11.875 14.4995C12.1011 14.7447 12.2732 15.0319 12.3806 15.3435C12.4881 15.6552 12.5287 15.9847 12.5 16.312V19.6591C12.4992 19.7407 12.5187 19.8213 12.557 19.894C12.5953 19.9668 12.6511 20.0295 12.7198 20.0769C12.7885 20.1244 12.868 20.1551 12.9516 20.1665C13.0352 20.1779 13.1204 20.1696 13.2 20.1424C15.2265 19.439 16.9732 18.1378 18.1934 16.4228C19.4135 14.7078 20.0455 12.6655 20 10.5845C20.0117 9.29775 19.7576 8.02166 19.2524 6.83107C18.7473 5.64049 18.0013 4.55938 17.0583 3.65115C16.1153 2.74292 14.9941 2.02584 13.7606 1.54196C12.5271 1.05808 11.2061 0.817144 9.87497 0.83328ZM3.92497 14.6204V14.8258C3.93891 14.8393 3.95547 14.85 3.9737 14.8573C3.99193 14.8647 4.01148 14.8684 4.03122 14.8684C4.05097 14.8684 4.07051 14.8647 4.08875 14.8573C4.10698 14.85 4.12354 14.8393 4.13747 14.8258C4.13747 14.8258 4.13747 14.6929 4.13747 14.6083C4.13747 14.5237 3.97497 14.572 3.92497 14.6204ZM3.48747 14.2941C3.48747 14.2941 3.48747 14.4149 3.57497 14.4512C3.58552 14.4638 3.59885 14.474 3.61399 14.481C3.62913 14.488 3.6457 14.4916 3.66247 14.4916C3.67925 14.4916 3.69582 14.488 3.71096 14.481C3.7261 14.474 3.73943 14.4638 3.74997 14.4512C3.74997 14.4512 3.74997 14.3304 3.66247 14.2941C3.57497 14.2579 3.51247 14.2579 3.48747 14.2941ZM4.73747 15.7199V15.9737C4.73747 16.0583 4.94997 16.0704 4.99997 15.9737C5.04997 15.877 4.99997 15.8045 4.99997 15.7199C4.99997 15.6354 4.83747 15.6595 4.78747 15.7199H4.73747ZM4.27497 15.1279V15.3695C4.27497 15.4662 4.44997 15.5024 4.51247 15.4662C4.54413 15.431 4.56156 15.386 4.56156 15.3393C4.56156 15.2927 4.54413 15.2476 4.51247 15.2124C4.44997 15.1158 4.34997 15.0795 4.27497 15.1279Z" fill="white"/>
</svg>
