<svg width="12" height="13" viewBox="0 0 12 13" fill="none" xmlns="http://www.w3.org/2000/svg">
<g clip-path="url(#clip0_4_664)">
<path d="M6 8.60002C9.105 8.60002 11.625 7.66252 11.625 6.50002C11.625 5.33752 9.105 4.40002 6 4.40002C2.895 4.40002 0.375 5.33752 0.375 6.50002C0.375 7.66252 2.895 8.60002 6 8.60002Z" stroke="#91D7E3" stroke-linecap="round" stroke-linejoin="round"/>
<path d="M4.13999 7.54999C5.69249 10.175 7.78499 11.84 8.81249 11.2625C9.83999 10.6775 9.41249 8.08249 7.85999 5.44999C6.30749 2.82499 4.21499 1.15999 3.18749 1.73749C2.15999 2.32249 2.58749 4.91749 4.13999 7.54999Z" stroke="#91D7E3" stroke-linecap="round" stroke-linejoin="round"/>
<path d="M4.13999 5.44999C2.58749 8.07499 2.15999 10.6775 3.18749 11.2625C4.21499 11.84 6.30749 10.175 7.85999 7.54999C9.41249 4.92499 9.83999 2.32249 8.81249 1.73749C7.78499 1.15999 5.69249 2.82499 4.13999 5.44999Z" stroke="#91D7E3" stroke-linecap="round" stroke-linejoin="round"/>
<path d="M6.375 6.5C6.375 6.59946 6.33549 6.69484 6.26517 6.76517C6.19484 6.83549 6.09946 6.875 6 6.875C5.90054 6.875 5.80516 6.83549 5.73484 6.76517C5.66451 6.69484 5.625 6.59946 5.625 6.5C5.625 6.40054 5.66451 6.30516 5.73484 6.23484C5.80516 6.16451 5.90054 6.125 6 6.125C6.09946 6.125 6.19484 6.16451 6.26517 6.23484C6.33549 6.30516 6.375 6.40054 6.375 6.5Z" stroke="#91D7E3" stroke-linecap="round" stroke-linejoin="round"/>
</g>
<defs>
<clipPath id="clip0_4_664">
<rect width="12" height="12" fill="white" transform="translate(0 0.5)"/>
</clipPath>
</defs>
</svg>
