<svg width="12" height="13" viewBox="0 0 12 13" fill="none" xmlns="http://www.w3.org/2000/svg">
<g clip-path="url(#clip0_4_673)">
<path d="M5.99999 5.82505C6.48151 5.82505 6.87186 5.4347 6.87186 4.95317C6.87186 4.47165 6.48151 4.0813 5.99999 4.0813C5.51846 4.0813 5.12811 4.47165 5.12811 4.95317C5.12811 5.4347 5.51846 5.82505 5.99999 5.82505Z" fill="#61DAFB"/>
<path d="M5.99999 8.1594C6.68437 8.82502 7.35937 9.21877 7.90312 9.21877C8.08124 9.21877 8.24999 9.18127 8.39062 9.0969C8.87812 8.81565 9.05624 8.11252 8.8875 7.1094C8.85937 6.93127 8.82187 6.75315 8.77499 6.56565C8.96249 6.5094 9.13124 6.45315 9.29999 6.3969C10.2469 6.03127 10.7719 5.52502 10.7719 4.9719C10.7719 4.4094 10.2469 3.90315 9.29999 3.5469C9.13124 3.48127 8.96249 3.42502 8.77499 3.37815C8.82187 3.19065 8.85937 3.01252 8.8875 2.8344C9.04687 1.81252 8.86874 1.10002 8.38124 0.818774C8.24062 0.734399 8.07187 0.696899 7.89374 0.696899C7.35937 0.696899 6.67499 1.09065 5.99062 1.75627C5.31562 1.09065 4.64062 0.696899 4.09687 0.696899C3.91874 0.696899 3.74999 0.734399 3.60937 0.818774C3.12187 1.10002 2.94374 1.80315 3.11249 2.80627C3.14062 2.9844 3.17812 3.16252 3.22499 3.35002C3.03749 3.40627 2.86874 3.46252 2.69999 3.51877C1.75312 3.8844 1.22812 4.39065 1.22812 4.94377C1.22812 5.50627 1.75312 6.01252 2.69999 6.36877C2.86874 6.4344 3.03749 6.49065 3.22499 6.53752C3.17812 6.72502 3.14062 6.90315 3.11249 7.08127C2.95312 8.0844 3.13124 8.7969 3.60937 9.06878C3.74999 9.15315 3.91874 9.19065 4.09687 9.19065C4.64062 9.2094 5.31562 8.81565 5.99999 8.1594ZM5.47499 6.89377C5.64374 6.90315 5.82187 6.90315 5.99999 6.90315C6.17812 6.90315 6.35624 6.90315 6.52499 6.89377C6.35624 7.11877 6.17812 7.32502 5.99999 7.5219C5.82187 7.32502 5.64374 7.11877 5.47499 6.89377ZM4.31249 5.92815C4.40624 6.08752 4.49062 6.23752 4.59374 6.38752C4.30312 6.35002 4.03124 6.30315 3.76874 6.2469C3.85312 5.99377 3.94687 5.73127 4.05937 5.46877C4.13437 5.61877 4.21874 5.77815 4.31249 5.92815ZM3.76874 3.66877C4.03124 3.61252 4.30312 3.56565 4.59374 3.52815C4.49999 3.67815 4.40624 3.82815 4.31249 3.98752C4.21874 4.1469 4.13437 4.2969 4.05937 4.45627C3.93749 4.1844 3.84374 3.9219 3.76874 3.66877ZM4.28437 4.95315C4.40624 4.70002 4.53749 4.4469 4.68749 4.19377C4.82812 3.95002 4.98749 3.70627 5.14687 3.46252C5.42812 3.44377 5.70937 3.4344 5.99999 3.4344C6.29999 3.4344 6.58124 3.44377 6.85312 3.46252C7.02187 3.70627 7.17187 3.95002 7.31249 4.19377C7.46249 4.4469 7.59374 4.70002 7.71562 4.95315C7.59374 5.20627 7.46249 5.4594 7.31249 5.71252C7.17187 5.95627 7.01249 6.20002 6.85312 6.44377C6.57187 6.46252 6.29062 6.4719 5.99999 6.4719C5.69999 6.4719 5.41874 6.46252 5.14687 6.44377C4.97812 6.20002 4.82812 5.95627 4.68749 5.71252C4.53749 5.4594 4.40624 5.20627 4.28437 4.95315ZM7.95 4.4469L7.69687 3.97815C7.60312 3.81877 7.51874 3.66877 7.41562 3.51877C7.70624 3.55627 7.97812 3.60315 8.24062 3.6594C8.15624 3.9219 8.06249 4.1844 7.95 4.4469ZM7.95 5.4594C8.06249 5.7219 8.15624 5.9844 8.24062 6.23752C7.97812 6.29377 7.70624 6.34065 7.41562 6.37815C7.50937 6.22815 7.60312 6.07815 7.69687 5.91877C7.78124 5.77815 7.86562 5.61877 7.95 5.4594ZM8.16562 8.71252C8.09062 8.7594 7.99687 8.77815 7.89374 8.77815C7.43437 8.77815 6.86249 8.40315 6.29999 7.84065C6.57187 7.55002 6.83437 7.2219 7.09687 6.85627C7.53749 6.81877 7.95937 6.75315 8.35312 6.6594C8.39999 6.82815 8.42812 6.9969 8.45624 7.16565C8.58749 7.96252 8.48437 8.5344 8.16562 8.71252ZM8.65312 3.7719C9.70312 4.0719 10.3312 4.53127 10.3312 4.95315C10.3312 5.31877 9.89999 5.6844 9.14062 5.97502C8.99062 6.03127 8.82187 6.08752 8.65312 6.1344C8.53124 5.75002 8.38124 5.35627 8.19374 4.95315C8.38124 4.55002 8.54062 4.15627 8.65312 3.7719ZM7.90312 1.12815C8.00624 1.12815 8.09062 1.1469 8.17499 1.19377C8.48437 1.3719 8.59687 1.9344 8.46562 2.74065C8.43749 2.90002 8.39999 3.06877 8.36249 3.2469C7.96874 3.16252 7.54687 3.0969 7.10624 3.05002C6.85312 2.6844 6.58124 2.35627 6.30937 2.06565C6.87187 1.51252 7.44374 1.12815 7.90312 1.12815ZM6.52499 3.01252C6.35624 3.00315 6.17812 3.00315 5.99999 3.00315C5.82187 3.00315 5.64374 3.00315 5.47499 3.01252C5.64374 2.78752 5.82187 2.58127 5.99999 2.3844C6.17812 2.58127 6.35624 2.7969 6.52499 3.01252ZM3.83437 1.19377C3.90937 1.1469 4.00312 1.12815 4.10624 1.12815C4.56562 1.12815 5.13749 1.50315 5.69999 2.06565C5.42812 2.35627 5.16562 2.6844 4.90312 3.05002C4.46249 3.08752 4.04062 3.15315 3.64687 3.2469C3.59999 3.07815 3.57187 2.9094 3.54374 2.74065C3.41249 1.94377 3.51562 1.38127 3.83437 1.19377ZM3.34687 6.1344C2.29687 5.8344 1.66874 5.37502 1.66874 4.95315C1.66874 4.58752 2.09999 4.2219 2.85937 3.93127C3.00937 3.87502 3.17812 3.81877 3.34687 3.7719C3.46874 4.15627 3.61874 4.55002 3.80624 4.95315C3.61874 5.35627 3.45937 5.7594 3.34687 6.1344ZM3.54374 7.16565C3.57187 7.00627 3.60937 6.83752 3.64687 6.6594C4.04062 6.74377 4.46249 6.8094 4.90312 6.85627C5.15624 7.2219 5.42812 7.55002 5.69999 7.84065C5.13749 8.39377 4.56562 8.77815 4.10624 8.77815C4.00312 8.77815 3.91874 8.7594 3.83437 8.71252C3.51562 8.5344 3.41249 7.96252 3.54374 7.16565ZM3.14999 11.0281C3.35624 10.775 3.36562 10.4938 3.25312 10.2125C3.14062 9.93127 2.90624 9.80002 2.61562 9.79065C2.26874 9.78127 1.91249 9.79065 1.56562 9.79065H1.49999V12.2188H1.78124V11.3H2.22187C2.27812 11.3 2.32499 11.3188 2.35312 11.3657L2.91562 12.2375C2.92499 12.2563 2.95312 12.2844 2.97187 12.2844H3.33749C3.11249 11.9375 2.89687 11.6094 2.67187 11.2719C2.86874 11.2438 3.03749 11.1782 3.14999 11.0281ZM1.78124 11.0094V10.0813H1.88437C2.09999 10.0813 2.32499 10.0719 2.54062 10.0906C2.79374 10.1 2.97187 10.2969 2.97187 10.55C2.97187 10.8031 2.76562 11 2.51249 11.0094C2.28749 11.0188 2.06249 11.0094 1.78124 11.0094ZM5.40937 11.1313C5.25937 10.475 4.65937 10.3063 4.19999 10.5125C3.84374 10.6719 3.68437 10.9813 3.67499 11.3657C3.66562 11.6563 3.74999 11.9188 3.97499 12.1157C4.22812 12.3406 4.53749 12.3688 4.85624 12.3125C5.03437 12.275 5.19374 12.1906 5.31562 12.0594C5.26874 11.9938 5.22187 11.9282 5.17499 11.8719C4.91249 12.0969 4.62187 12.1719 4.30312 12.0219C4.09687 11.9188 3.99374 11.6656 3.97499 11.4781H5.42812V11.3563C5.43749 11.2719 5.42812 11.1969 5.40937 11.1313ZM3.99374 11.2813C3.96562 11 4.24687 10.7 4.55624 10.7C4.91249 10.6906 5.13749 10.9063 5.14687 11.2813H3.99374ZM6.87187 10.4656C6.73124 10.4375 6.58124 10.4281 6.44062 10.4375C6.21562 10.4563 6.01874 10.5594 5.85937 10.7281C5.90624 10.7938 5.94374 10.8594 5.99999 10.9344C6.01874 10.9156 6.03749 10.8969 6.05624 10.8875C6.20624 10.7469 6.38437 10.6719 6.59999 10.6906C6.76874 10.7 6.92812 10.7563 6.97499 10.925C7.01249 11.0563 7.00312 11.1969 7.01249 11.3375C6.98437 11.3375 6.97499 11.3281 6.96562 11.3188C6.74062 11.1313 6.48749 11.0938 6.21562 11.1594C5.96249 11.225 5.80312 11.4219 5.78437 11.675C5.76562 11.9656 5.89687 12.1813 6.14999 12.2844C6.30937 12.35 6.48749 12.35 6.65624 12.3125C6.78749 12.2844 6.84374 12.2094 7.03124 12.1063V12.2281H7.29375C7.29375 11.8531 7.30312 11.3938 7.29375 10.9625C7.29375 10.6906 7.13437 10.5219 6.87187 10.4656ZM7.00312 11.6469C6.99374 11.675 7.00312 11.7031 7.00312 11.7313C7.00312 11.9282 6.95624 11.9938 6.76874 12.0688C6.63749 12.1157 6.49687 12.1344 6.35624 12.0875C6.19687 12.0406 6.08437 11.9 6.08437 11.7407C6.07499 11.5813 6.17812 11.4219 6.33749 11.375C6.55312 11.3 6.74999 11.3469 6.92812 11.4781C6.98437 11.525 7.02187 11.5719 7.00312 11.6469ZM8.46562 10.7188C8.70937 10.6438 8.93437 10.6906 9.10312 10.8969L9.13124 10.9156C9.19687 10.8594 9.25312 10.8031 9.32812 10.7375C9.29999 10.7094 9.29062 10.6906 9.27187 10.6625C8.99999 10.3719 8.46562 10.3344 8.1375 10.5688C7.67812 10.9063 7.68749 11.5625 7.91249 11.9094C8.12812 12.2375 8.43749 12.35 8.80312 12.3032C9.01874 12.275 9.19687 12.1719 9.33749 11.9938C9.27187 11.9375 9.20624 11.8813 9.14062 11.8156C9.12187 11.8344 9.11249 11.8438 9.10312 11.8625C8.84999 12.1438 8.42812 12.1156 8.20312 11.8156C8.07187 11.6375 8.04374 11.4313 8.08124 11.225C8.09999 10.9907 8.22187 10.8031 8.46562 10.7188ZM10.4156 11.9938C10.3969 12.0031 10.3875 12.0125 10.3875 12.0125C10.3125 12.0688 10.2375 12.0781 10.1531 12.05C10.0687 12.0125 10.0594 11.9375 10.05 11.8625V10.7938C10.05 10.775 10.05 10.8125 10.0594 10.7188H10.4156V10.4375H10.0406V9.96877H9.75937V10.475H9.51562C9.49687 10.475 9.46874 10.4938 9.46874 10.5125C9.45937 10.5781 9.46874 10.625 9.46874 10.7188H9.76874V11.9188C9.76874 12.0688 9.80624 12.2 9.93749 12.275C10.0781 12.3594 10.35 12.3406 10.4719 12.2375C10.4906 12.2281 10.5 12.1906 10.5 12.1813C10.4719 12.125 10.4437 12.0594 10.4156 11.9938Z" fill="#61DAFB"/>
</g>
<defs>
<clipPath id="clip0_4_673">
<rect width="12" height="12" fill="white" transform="translate(0 0.5)"/>
</clipPath>
</defs>
</svg>
