<svg width="12" height="13" viewBox="0 0 12 13" fill="none" xmlns="http://www.w3.org/2000/svg">
<g clip-path="url(#clip0_4_690)">
<path d="M6.00037 2.90015C4.40033 2.90015 3.40068 3.69983 3.00037 5.29987C3.60018 4.50008 4.3004 4.20018 5.10018 4.40015C5.55683 4.51396 5.88318 4.84508 6.24459 5.21202C6.83277 5.80893 7.51359 6.49996 9.00037 6.49996C10.6003 6.49996 11.6001 5.70018 12.0004 4.09977C11.4004 4.89996 10.7004 5.20002 9.90046 4.99996C9.4439 4.88605 9.11793 4.55502 8.75605 4.18808C8.16824 3.59118 7.48762 2.90015 6.00037 2.90015ZM3.00037 6.49996C1.40043 6.49996 0.400679 7.29974 0.000366211 8.90015C0.600304 8.09996 1.30024 7.7999 2.10018 7.99996C2.55683 8.11387 2.88318 8.4449 3.24459 8.81183C3.83277 9.40874 4.51358 10.0998 6.00037 10.0998C7.6003 10.0998 8.60005 9.30008 9.00037 7.70005C8.40037 8.49987 7.7004 8.79977 6.90046 8.59977C6.4439 8.48596 6.11793 8.15483 5.75605 7.7879C5.16824 7.19099 4.48762 6.49996 3.00037 6.49996Z" fill="#38BDF8"/>
</g>
<defs>
<clipPath id="clip0_4_690">
<rect width="12" height="12" fill="white" transform="translate(0 0.5)"/>
</clipPath>
</defs>
</svg>
