<svg width="12" height="13" viewBox="0 0 12 13" fill="none" xmlns="http://www.w3.org/2000/svg">
<g clip-path="url(#clip0_4_670)">
<path d="M2.12531 4.90625H11.4694V11.8128H2.12531V4.90625Z" fill="white"/>
<path d="M0.140625 6.49158V12.351H11.8594V0.632202H0.140625V6.49158ZM9.58406 6.02283C9.86474 6.08796 10.1198 6.23476 10.3172 6.4447C10.4258 6.55782 10.5203 6.68375 10.5984 6.8197C10.5984 6.8347 10.0922 7.17689 9.78375 7.36814C9.7725 7.37564 9.7275 7.32689 9.67781 7.25283C9.62151 7.15567 9.5415 7.07436 9.44527 7.01649C9.34904 6.95862 9.23971 6.92608 9.1275 6.92189C8.77219 6.89751 8.54344 7.08408 8.54531 7.39064C8.54247 7.46696 8.55994 7.54266 8.59594 7.61001C8.67375 7.7722 8.81906 7.86876 9.27469 8.06564C10.1138 8.42658 10.4728 8.6647 10.6959 9.00314C10.9453 9.37814 11.0006 9.98376 10.8319 10.4319C10.6444 10.9194 10.185 11.2503 9.53531 11.36C9.23858 11.394 8.93876 11.3909 8.64281 11.3506C8.18922 11.2759 7.77139 11.0581 7.45031 10.7291C7.3425 10.61 7.1325 10.2997 7.14563 10.2772C7.17978 10.2517 7.21582 10.2288 7.25344 10.2088L7.6875 9.96876L8.02406 9.77376L8.09437 9.87783C8.21308 10.0475 8.36408 10.1922 8.53875 10.3035C8.91375 10.5003 9.42562 10.4731 9.67875 10.2453C9.76374 10.1618 9.81676 10.0512 9.82858 9.93267C9.8404 9.81413 9.81027 9.69519 9.74344 9.59658C9.64969 9.46626 9.46219 9.35658 8.93812 9.12783C8.33344 8.8672 8.07281 8.70595 7.83469 8.44908C7.68608 8.27953 7.57633 8.07955 7.51312 7.86314C7.46602 7.61587 7.45906 7.36263 7.4925 7.11314C7.61719 6.52908 8.055 6.12126 8.69438 6.00033C8.99048 5.96375 9.29041 5.97196 9.58406 6.0247V6.02283ZM6.83344 6.51408V6.99408H5.31187V11.3281H4.23281V6.99314H2.7075V6.52439C2.70272 6.36274 2.70647 6.20095 2.71875 6.0397C2.72625 6.03126 3.65625 6.03126 4.78125 6.03126H6.82781L6.83344 6.51408Z" fill="#007ACC"/>
</g>
<defs>
<clipPath id="clip0_4_670">
<rect width="12" height="12" fill="white" transform="translate(0 0.5)"/>
</clipPath>
</defs>
</svg>
